# xmcd
# 
# Track frame offsets:
#     150
#     23166
#     36388
#     48705
#     71247
#     87603
#     96339
#     108753
#     137609
#     153336
#     166168
#     178582
#     191247
# 
# Disc length: 2845
# 
# Revision: 0
# Processed by: cddbd v1.5.2PL0 Copyright (c) Steve Scherf et al.
# Submitted via: fre:ac v1.0.17
# 
DISCID=b60b1b0d
DTITLE=Healers - De Blûsrûs
DYEAR=2005
DGENRE=Blues
TTITLE0=Blûs by de Rûs
TTITLE1=Lûk myn pream
TTITLE2=Foarst my de sek joust
TTITLE3=Myn Siet Wyfke
TTITLE4=De dikke reade Hoanne
TTITLE5=Ien foar my allinich
TTITLE6=Goed nei"t Sin
TTITLE7=Blaue moandei
TTITLE8=Ik hie in oar frommes
TTITLE9=Hurdsiler
TTITLE10=Eltse dei ha ik de Blûs
TTITLE11=Ik bin in Ilebei
TTITLE12=Moatst my Helpe
EXTD=Friese blues
EXTT0=
EXTT1=
EXTT2=
EXTT3=
EXTT4=
EXTT5=
EXTT6=
EXTT7=
EXTT8=
EXTT9=
EXTT10=
EXTT11=
EXTT12=
PLAYORDER=
